HIERARCHY
ROOT joint_Root
{
	OFFSET 0.0 0.0 0.0
	CHANNELS 6 Xposition Yposition Zposition Zrotation Xrotation Yrotation 
	JOINT Hips
	{
		OFFSET -17.1583 93.1646 452.98
		CHANNELS 6 Xposition Yposition Zposition Zrotation Xrotation Yrotation 
		JOINT Spine
		{
			OFFSET 15.7357 0.0 0.0
			CHANNELS 6 Xposition Yposition Zposition Zrotation Xrotation Yrotation 
			JOINT Chest
			{
				OFFSET 8.98455 -0.406207 0.0
				CHANNELS 6 Xposition Yposition Zposition Zrotation Xrotation Yrotation 
				JOINT Neck
				{
					OFFSET 16.3773 0.0 0.0
					CHANNELS 6 Xposition Yposition Zposition Zrotation Xrotation Yrotation 
					JOINT Head
					{
						OFFSET 6.45672 0.0 0.0
						CHANNELS 6 Xposition Yposition Zposition Zrotation Xrotation Yrotation 
						End Site
						{
							OFFSET 0.0 0.0 0.0
						}
					}
				}
				JOINT Shoulder_L
				{
					OFFSET 12.9942 -0.242716 4.98039
					CHANNELS 6 Xposition Yposition Zposition Zrotation Xrotation Yrotation 
					JOINT UpperArm_L
					{
						OFFSET 5.34809 0.0 0.0
						CHANNELS 6 Xposition Yposition Zposition Zrotation Xrotation Yrotation 
						JOINT LowerArm_L
						{
							OFFSET 24.3286 1.87007e-05 0.0
							CHANNELS 6 Xposition Yposition Zposition Zrotation Xrotation Yrotation 
							JOINT Hand_L
							{
								OFFSET 22.2916 0.0 0.0
								CHANNELS 6 Xposition Yposition Zposition Zrotation Xrotation Yrotation 
								End Site
								{
									OFFSET 0.0 0.0 0.0
								}
							}
						}
					}
				}
				JOINT Shoulder_R
				{
					OFFSET 12.9945 -0.242716 -4.98039
					CHANNELS 6 Xposition Yposition Zposition Zrotation Xrotation Yrotation 
					JOINT UpperArm_R
					{
						OFFSET -5.34813 0.0 0.0
						CHANNELS 6 Xposition Yposition Zposition Zrotation Xrotation Yrotation 
						JOINT LowerArm_R
						{
							OFFSET -24.3289 0.000322201 0.0
							CHANNELS 6 Xposition Yposition Zposition Zrotation Xrotation Yrotation 
							JOINT Hand_R
							{
								OFFSET -22.2915 -0.000108084 0.0
								CHANNELS 6 Xposition Yposition Zposition Zrotation Xrotation Yrotation 
								End Site
								{
									OFFSET 0.0 0.0 0.0
								}
							}
						}
					}
				}
			}
		}
		JOINT UpperLeg_L
		{
			OFFSET -2.19248 -6.46944 0.0
			CHANNELS 6 Xposition Yposition Zposition Zrotation Xrotation Yrotation 
			JOINT LowerLeg_L
			{
				OFFSET 39.0811 0.0 -1.23785e-05
				CHANNELS 6 Xposition Yposition Zposition Zrotation Xrotation Yrotation 
				JOINT Foot_L
				{
					OFFSET 40.9854 0.0 -1.26872e-05
					CHANNELS 6 Xposition Yposition Zposition Zrotation Xrotation Yrotation 
					JOINT Toes_L
					{
						OFFSET 11.7543 0.0 0.0
						CHANNELS 6 Xposition Yposition Zposition Zrotation Xrotation Yrotation 
						End Site
						{
							OFFSET 0.0 0.0 0.0
						}
					}
				}
			}
		}
		JOINT UpperLeg_R
		{
			OFFSET -2.19251 6.46944 0.0
			CHANNELS 6 Xposition Yposition Zposition Zrotation Xrotation Yrotation 
			JOINT LowerLeg_R
			{
				OFFSET -39.0811 -0.00228153 -0.0401928
				CHANNELS 6 Xposition Yposition Zposition Zrotation Xrotation Yrotation 
				JOINT Foot_R
				{
					OFFSET -40.9854 0.0 0.0
					CHANNELS 6 Xposition Yposition Zposition Zrotation Xrotation Yrotation 
					JOINT Toes_R
					{
						OFFSET -11.7543 0.0 0.0
						CHANNELS 6 Xposition Yposition Zposition Zrotation Xrotation Yrotation 
						End Site
						{
							OFFSET 0.0 0.0 0.0
						}
					}
				}
			}
		}
	}
}
MOTION
Frames:	6
Frame Time:	0.0333333
0.000000 0.000000 0.000000 0.000000 0.000000 -0.000000 -2.126660 93.215700 0.847161 87.581200 1.082320 -0.335792 15.735700 0.000005 -0.000001 65.536700 88.530500 -63.845400 8.984550 -0.406207 -0.000000 -5.068600 -1.405110 3.323380 16.377300 -0.000001 -0.000001 3.701140 0.841406 -3.267000 6.456720 -0.000001 -0.000000 -2.907300 -0.737404 -0.965343 12.994200 -0.242716 4.980390 -88.806000 -2.117680 -60.574600 5.348090 -0.000007 -0.000001 -51.360500 -61.418500 -111.598000 24.328600 0.000019 0.000005 12.082200 33.098400 -21.410700 22.291600 -0.000001 0.000005 55.887600 4.892440 9.489800 12.994500 -0.242716 -4.980390 92.683400 -4.615520 -59.781600 -5.348130 -0.000001 -0.000004 -50.046100 -60.535300 -111.609000 -24.328900 0.000322 -0.000009 -0.079774 -0.237896 -18.397100 -22.291500 -0.000108 -0.000004 39.304900 5.648270 -14.714100 -2.192480 -6.469440 -0.000000 -172.060000 -11.134100 -0.880113 39.081100 -0.000007 -0.000012 -0.007472 0.030210 13.891700 40.985400 -0.000006 -0.000013 -1.462450 15.345200 -68.372300 11.754300 -0.000000 0.000003 -0.001466 0.189450 -8.891250 -2.192510 6.469440 -0.000001 178.648000 9.500030 -177.812000 -39.081100 -0.002282 -0.040193 -0.000270 0.022832 8.985220 -40.985400 0.000008 0.000006 -6.292590 7.747940 -65.897900 -11.754300 -0.000006 -0.000006 -0.010134 0.272300 -5.510270
0.000000 0.000000 0.000000 0.000000 0.000000 -0.000000 -2.091770 93.253600 0.768088 87.566300 0.856992 -0.694415 15.735700 0.000005 -0.000001 68.138700 88.640100 -66.417300 8.984550 -0.406207 -0.000000 -5.222040 -1.206550 3.391050 16.377300 -0.000001 -0.000001 3.190860 0.837325 -3.591890 6.456720 -0.000001 -0.000000 -3.341460 -1.050980 -1.254300 12.994200 -0.242716 4.980390 -88.804200 -2.100560 -60.338400 5.348090 -0.000007 -0.000001 -44.698900 -61.828300 -107.133000 24.328600 0.000019 0.000005 12.496400 39.231300 -19.312300 22.291600 -0.000001 0.000005 59.799500 4.847860 10.400700 12.994500 -0.242716 -4.980390 92.549900 -4.423750 -59.999200 -5.348130 -0.000001 -0.000004 -45.838200 -61.033700 -109.381000 -24.328900 0.000322 -0.000009 2.089600 6.564180 -17.719000 -22.291500 -0.000108 -0.000004 43.180600 5.681310 -19.682900 -2.192480 -6.469440 -0.000000 -172.160000 -11.261900 -1.093250 39.081100 -0.000007 -0.000012 -0.005076 0.020995 13.590200 40.985400 -0.000006 -0.000013 -1.491610 15.220500 -68.279100 11.754300 -0.000000 0.000003 -0.001359 0.188012 -8.949700 -2.192510 6.469440 -0.000001 178.652000 9.517500 -178.044000 -39.081100 -0.002282 -0.040193 -0.000845 0.027822 8.556830 -40.985400 0.000008 0.000006 -6.635560 8.000610 -65.496700 -11.754300 -0.000006 -0.000006 -0.010143 0.272370 -5.507450
0.000000 0.000000 0.000000 0.000000 0.000000 -0.000000 -2.068370 93.290300 0.682931 87.608600 0.836714 -0.944962 15.735700 0.000005 -0.000001 71.330400 88.700700 -69.640800 8.984550 -0.406207 -0.000000 -5.287180 -1.023230 3.335210 16.377300 -0.000001 -0.000001 2.709540 0.857019 -3.491320 6.456720 -0.000001 -0.000000 -3.599440 -1.087130 -1.509550 12.994200 -0.242716 4.980390 -88.888700 -1.942650 -60.219700 5.348090 -0.000007 -0.000001 -43.148800 -61.115000 -105.534000 24.328600 0.000019 0.000005 10.421800 37.006800 -16.990800 22.291600 -0.000001 0.000005 54.263800 4.940300 8.549270 12.994500 -0.242716 -4.980390 92.439300 -4.269930 -60.224200 -5.348130 -0.000001 -0.000004 -42.703400 -61.261200 -106.965000 -24.328900 0.000322 -0.000009 3.148450 11.328000 -15.650800 -22.291500 -0.000108 -0.000004 44.715600 5.682010 -21.201200 -2.192480 -6.469440 -0.000000 -172.272000 -11.268200 -1.245480 39.081100 -0.000007 -0.000012 -0.004863 0.020664 13.240700 40.985400 -0.000006 -0.000013 -1.540590 15.194900 -68.050300 11.754300 -0.000000 0.000003 -0.001432 0.188987 -8.910050 -2.192510 6.469440 -0.000001 178.610000 9.674340 -178.164000 -39.081100 -0.002282 -0.040193 -0.000755 0.028557 8.164340 -40.985400 0.000008 0.000006 -6.734550 8.163960 -65.236300 -11.754300 -0.000006 -0.000006 -0.010438 0.274545 -5.418440
0.000000 0.000000 0.000000 0.000000 0.000000 -0.000000 -2.051340 93.321500 0.600925 87.647700 1.006310 -1.168930 15.735700 0.000005 -0.000001 74.216700 88.706600 -72.576300 8.984550 -0.406207 -0.000000 -5.262330 -0.889152 3.243060 16.377300 -0.000001 -0.000001 2.370790 0.862135 -3.204600 6.456720 -0.000001 -0.000000 -3.837580 -0.961279 -1.595190 12.994200 -0.242716 4.980390 -89.098600 -1.577880 -60.256900 5.348090 -0.000007 -0.000001 -42.697600 -59.937300 -103.950000 24.328600 0.000019 0.000005 7.862340 33.459500 -14.059900 22.291600 -0.000001 0.000005 50.226300 4.912950 9.124420 12.994500 -0.242716 -4.980390 92.424400 -4.256060 -60.294900 -5.348130 -0.000001 -0.000004 -40.368700 -61.041100 -103.768000 -24.328900 0.000322 -0.000009 1.981340 8.827930 -12.700500 -22.291500 -0.000108 -0.000004 42.448600 5.681500 -20.070400 -2.192480 -6.469440 -0.000000 -172.393000 -11.086500 -1.425550 39.081100 -0.000007 -0.000012 -0.002946 0.012784 12.973600 40.985400 -0.000006 -0.000013 -1.565600 15.157000 -67.913200 11.754300 -0.000000 0.000003 -0.001178 0.185537 -9.050320 -2.192510 6.469440 -0.000001 178.580000 9.823910 -178.274000 -39.081100 -0.002282 -0.040193 -0.000770 0.029923 7.824630 -40.985400 0.000008 0.000006 -7.074610 8.139940 -64.879900 -11.754300 -0.000006 -0.000006 -0.009961 0.271013 -5.562940
0.000000 0.000000 0.000000 0.000000 0.000000 -0.000000 -2.043520 93.347600 0.537562 87.652300 1.273670 -1.333880 15.735700 0.000005 -0.000001 74.741300 88.686200 -73.112100 8.984550 -0.406207 -0.000000 -5.216940 -0.875187 3.221570 16.377300 -0.000001 -0.000001 2.225560 0.871361 -2.881570 6.456720 -0.000001 -0.000000 -3.889660 -0.670466 -1.806900 12.994200 -0.242716 4.980390 -89.361100 -1.122720 -60.355900 5.348090 -0.000007 -0.000001 -43.459900 -58.314900 -101.861000 24.328600 0.000019 0.000005 5.962400 29.817800 -11.861300 22.291600 -0.000001 0.000005 49.271700 4.819430 10.949400 12.994500 -0.242716 -4.980390 92.353400 -4.134350 -60.314900 -5.348130 -0.000001 -0.000004 -40.639700 -59.977300 -102.100000 -24.328900 0.000322 -0.000009 0.379092 2.369810 -9.063220 -22.291500 -0.000108 -0.000004 39.019100 5.668950 -17.054200 -2.192480 -6.469440 -0.000000 -172.416000 -11.207900 -1.606470 39.081100 -0.000007 -0.000012 -0.003926 0.017259 12.813300 40.985400 -0.000006 -0.000013 -1.557790 15.484400 -67.843900 11.754300 -0.000000 0.000003 -0.001440 0.189105 -8.905290 -2.192510 6.469440 -0.000001 178.590000 10.008700 -178.308000 -39.081100 -0.002282 -0.040193 -0.000737 0.030973 7.503960 -40.985400 0.000008 0.000006 -7.393250 8.081860 -64.673200 -11.754300 -0.000006 -0.000006 -0.010251 0.273169 -5.474750
0.000000 0.000000 0.000000 0.000000 0.000000 -0.000000 -2.047700 93.363000 0.504126 87.670900 1.603820 -1.498270 15.735700 0.000005 -0.000001 74.629900 88.670800 -73.008300 8.984550 -0.406207 -0.000000 -5.188340 -0.887040 3.205960 16.377300 -0.000001 -0.000001 2.279610 0.837911 -2.664560 6.456720 -0.000001 -0.000000 -3.999790 -0.553691 -1.881870 12.994200 -0.242716 4.980390 -89.568600 -0.764355 -60.557100 5.348090 -0.000007 -0.000001 -44.399800 -56.760700 -98.258800 24.328600 0.000019 0.000005 4.774780 26.104700 -10.748400 22.291600 -0.000001 0.000005 48.248300 4.733830 12.548100 12.994500 -0.242716 -4.980390 92.301000 -4.004390 -60.083700 -5.348130 -0.000001 -0.000004 -43.014800 -58.476100 -101.305000 -24.328900 0.000322 -0.000009 -0.383854 -3.995010 -5.508840 -22.291500 -0.000108 -0.000004 35.559100 5.622150 -12.681100 -2.192480 -6.469440 -0.000000 -172.460000 -11.209400 -1.816170 39.081100 -0.000007 -0.000012 -0.004317 0.019118 12.722800 40.985400 -0.000006 -0.000013 -1.536590 15.778000 -67.790400 11.754300 -0.000000 0.000003 -0.001441 0.189112 -8.904990 -2.192510 6.469440 -0.000001 178.613000 10.219500 -178.313000 -39.081100 -0.002282 -0.040193 -0.000486 0.030374 7.186430 -40.985400 0.000008 0.000006 -7.436480 7.936270 -64.483300 -11.754300 -0.000006 -0.000006 -0.010197 0.272773 -5.490930
